<?xml version="1.0" encoding="utf-8"?>
<!-- Generator: Adobe Illustrator 23.0.4, SVG Export Plug-In . SVG Version: 6.00 Build 0)  -->
<svg version="1.1" id="图层_1" xmlns="http://www.w3.org/2000/svg" xmlns:xlink="http://www.w3.org/1999/xlink" x="0px" y="0px"
	 viewBox="0 0 264 22" style="enable-background:new 0 0 264 22;" xml:space="preserve">
<style type="text/css">
	.st0{fill:#0F223F;}
	.st1{fill:url(#SVGID_1_);}
</style>
<g>
	<g>
		<g>
			<g>
				<path class="st0" d="M83.66,7.81h-3.6l-1.77-4.47h-4.52l-1.85,4.22h-3.6l2.8-6.54h3.65h6.01L83.66,7.81z M78.09,13.88
					c0.25,0,0.46-0.08,0.63-0.24c0.16-0.17,0.24-0.37,0.24-0.6v-1.85h-5.8v6.05c0,0.25,0.09,0.46,0.26,0.63
					c0.17,0.16,0.38,0.24,0.61,0.24h8.68l-0.9,2.59h-9.08c-0.42,0-0.81-0.08-1.17-0.23s-0.68-0.37-0.95-0.64
					c-0.28-0.27-0.49-0.59-0.64-0.95c-0.15-0.36-0.23-0.75-0.23-1.17V8.64H82.4v4.85c0,0.42-0.08,0.81-0.23,1.17
					c-0.15,0.37-0.37,0.68-0.64,0.95s-0.59,0.49-0.95,0.64c-0.37,0.15-0.75,0.23-1.17,0.23h-4.05l0.95-2.59L78.09,13.88L78.09,13.88
					z M88,2.34v14.6h-3.16V2.34C84.84,2.34,88,2.34,88,2.34z M92.27,17.72c0,0.41-0.08,0.8-0.23,1.16
					c-0.16,0.35-0.37,0.67-0.64,0.94s-0.59,0.49-0.95,0.64s-0.75,0.23-1.17,0.23h-2.23l1-2.67h0.21c0.25,0,0.46-0.08,0.62-0.24
					s0.24-0.37,0.24-0.63V1h3.16v16.72H92.27z"/>
				<path class="st0" d="M109.54,1.03v0.98h10.08v2.7h-10.08v4.16h-3.78V4.71H95.71v-2.7h10.05V1.03H109.54z M107.25,13.09h-4.16
					v7.6h-3.24v-7.6h-4.14v-2.15h4.14v-1.5h3.24v1.5h4.16C107.25,10.94,107.25,13.09,107.25,13.09z M95.71,20.69l1.01-6.59h2.53
					l-1.03,6.59H95.71z M100.74,8.79h-4.79l3.89-3.41h4.79L100.74,8.79z M103.69,14.1h2.53l1.03,6.59h-2.53L103.69,14.1z
					 M119.62,13.09h-4.17v7.6h-3.24v-7.6h-4.14v-2.15h4.14v-1.5h3.24v1.5h4.17V13.09z M108.07,20.69l1.01-6.59h2.53l-1.04,6.59
					H108.07z M114.42,8.79l-3.89-3.41h4.79l3.9,3.41H114.42z M116.05,14.1h2.53l1.04,6.59h-2.53L116.05,14.1z"/>
				<path class="st0" d="M123.13,11.16l3.21-2.78h-3.27V5.69h4.68V4.71h-0.93h-2.02h-1.74l1.28-3.65h3.76l-0.32,0.95h7.13v2.7h-3.38
					v0.98h3.54v2.69h-2.01l2.37,2.78h-3.78l-1.74-2.07l-2.39,2.07H123.13z M123.4,20.66v-2.37V17.2v-1.85v-1.09v-2.13v-0.27h19.31
					h3.95v2.42v1.09v1.74v0.11c-0.02,0.49-0.11,0.94-0.26,1.36c-0.15,0.42-0.37,0.78-0.64,1.09c-0.28,0.31-0.59,0.55-0.95,0.73
					c-0.37,0.18-0.75,0.27-1.15,0.27h-16.39L123.4,20.66L123.4,20.66z M127.27,15.35h15.44v-1.09h-15.44
					C127.27,14.26,127.27,15.35,127.27,15.35z M127.27,18.27h14.57c0.26,0,0.46-0.1,0.63-0.29c0.17-0.2,0.24-0.43,0.24-0.72v-0.05
					h-15.44C127.27,17.21,127.27,18.27,127.27,18.27z M136.17,1.05h10.81V1.3v2.45v4.41c0,0.42-0.08,0.81-0.23,1.17
					c-0.15,0.37-0.37,0.68-0.64,0.95c-0.28,0.27-0.59,0.49-0.95,0.64c-0.37,0.15-0.75,0.23-1.17,0.23h-7.82v-1.06V8.46V3.75V1.3
					V1.05z M143.2,3.75h-3.24v4.71h2.4c0.23,0,0.43-0.08,0.6-0.24c0.17-0.16,0.25-0.36,0.25-0.6L143.2,3.75L143.2,3.75z"/>
				<path class="st0" d="M156.05,10.45h-5.58v-2.8h23.83v2.8h-14.21l-3.24,6.86h11.87l-1.8-3.65h3.98l3.4,6.97h-3.95l-0.28-0.52
					h-14.54h-4.06L156.05,10.45z M152.07,1.09h20.62v2.8h-20.62V1.09z"/>
			</g>
		</g>
		
			<linearGradient id="SVGID_1_" gradientUnits="userSpaceOnUse" x1="-9.094947e-13" y1="10.845" x2="62.2393" y2="10.845" gradientTransform="matrix(1 0 0 -1 0 22)">
			<stop  offset="0.0121" style="stop-color:#3EBEED"/>
			<stop  offset="1" style="stop-color:#1153A5"/>
		</linearGradient>
		<path class="st1" d="M34.52,5.7h23.33c2.42,0,4.39-1.96,4.39-4.39l0,0H34.76c-2.91,0-5.59,1.96-6.14,4.82
			c-0.75,3.84,2.19,7.22,5.9,7.22h7.84c0.9,0,1.63,0.73,1.63,1.63s-0.73,1.63-1.63,1.63H10.07c-2.64,0-5.06-1.78-5.57-4.37
			C3.82,8.76,6.49,5.7,9.85,5.7h8.5c2.42,0,4.39-1.96,4.39-4.39l0,0H10.29c-5.14,0-9.74,3.74-10.24,8.86
			C-0.53,16.04,4.09,21,9.84,21h32.27c2.91,0,5.59-1.96,6.14-4.82c0.75-3.84-2.19-7.22-5.9-7.22h-7.84c-0.9,0-1.63-0.73-1.63-1.63
			C32.89,6.44,33.62,5.7,34.52,5.7z"/>
	</g>
	<g>
		<g>
			<path d="M208.53,11.08h-1.73l-0.42,1.23h-0.73l1.64-4.55h0.76l1.64,4.55h-0.75L208.53,11.08z M206.98,10.52h1.37l-0.68-1.99
				h-0.02L206.98,10.52z"/>
			<path d="M212.9,12.31h-0.65v-0.56h-0.02c-0.18,0.4-0.52,0.62-1.03,0.62c-0.72,0-1.16-0.47-1.16-1.23V8.99h0.68V11
				c0,0.5,0.24,0.78,0.71,0.78c0.49,0,0.79-0.34,0.79-0.86V8.99h0.68L212.9,12.31L212.9,12.31z"/>
			<path d="M214.54,8.21v0.78h0.63v0.54h-0.63v1.83c0,0.29,0.13,0.42,0.4,0.42c0.07,0,0.18-0.01,0.22-0.02v0.54
				c-0.08,0.02-0.23,0.03-0.38,0.03c-0.67,0-0.93-0.26-0.93-0.89v-1.9h-0.48V9h0.48V8.22L214.54,8.21L214.54,8.21z"/>
			<path d="M215.85,7.77h0.67v1.79h0.02c0.18-0.39,0.55-0.61,1.05-0.61c0.73,0,1.16,0.49,1.16,1.24v2.14h-0.68v-2
				c0-0.49-0.25-0.78-0.72-0.78c-0.5,0-0.81,0.35-0.81,0.87v1.92h-0.68V7.77H215.85z"/>
			<path d="M219.36,10.66c0-1.07,0.63-1.72,1.57-1.72c0.95,0,1.57,0.65,1.57,1.72s-0.62,1.72-1.57,1.72S219.36,11.72,219.36,10.66z
				 M221.81,10.66c0-0.73-0.35-1.16-0.88-1.16s-0.88,0.42-0.88,1.16s0.35,1.16,0.88,1.16C221.47,11.82,221.81,11.39,221.81,10.66z"
				/>
			<path d="M223.13,9h0.65v0.56h0.02c0.11-0.39,0.41-0.62,0.8-0.62c0.1,0,0.18,0.02,0.23,0.03V9.6c-0.05-0.02-0.17-0.04-0.31-0.04
				c-0.44,0-0.71,0.29-0.71,0.76v1.99h-0.68V9z"/>
			<path d="M225.32,8.07c0-0.22,0.18-0.39,0.39-0.39s0.39,0.17,0.39,0.39c0,0.21-0.17,0.39-0.39,0.39S225.32,8.29,225.32,8.07z
				 M225.37,9h0.68v3.31h-0.68V9z"/>
			<path d="M228.06,8.94c0.77,0,1.27,0.43,1.3,1.04h-0.64c-0.04-0.32-0.27-0.52-0.66-0.52c-0.37,0-0.61,0.18-0.61,0.44
				c0,0.21,0.15,0.35,0.51,0.43l0.54,0.12c0.68,0.16,0.94,0.42,0.94,0.9c0,0.61-0.56,1.02-1.35,1.02c-0.83,0-1.33-0.41-1.39-1.04
				h0.67c0.06,0.35,0.3,0.52,0.72,0.52c0.41,0,0.66-0.17,0.66-0.44c0-0.21-0.12-0.34-0.49-0.42l-0.54-0.13
				c-0.63-0.14-0.94-0.45-0.94-0.93C226.78,9.34,227.3,8.94,228.06,8.94z"/>
			<path d="M232.85,11.34c-0.09,0.61-0.67,1.04-1.43,1.04c-0.97,0-1.56-0.66-1.56-1.7s0.6-1.73,1.53-1.73
				c0.92,0,1.49,0.65,1.49,1.65v0.23h-2.34v0.04c0,0.58,0.35,0.96,0.89,0.96c0.39,0,0.67-0.2,0.77-0.49H232.85z M230.55,10.35h1.66
				c-0.02-0.51-0.34-0.86-0.81-0.86S230.58,9.85,230.55,10.35z"/>
			<path d="M233.36,10.66c0-1.05,0.55-1.71,1.39-1.71c0.48,0,0.85,0.24,1.04,0.61h0.01V7.78h0.68v4.55h-0.66v-0.56h-0.01
				c-0.2,0.38-0.57,0.62-1.06,0.62C233.91,12.37,233.36,11.7,233.36,10.66z M234.06,10.66c0,0.7,0.34,1.14,0.88,1.14
				c0.52,0,0.87-0.44,0.87-1.14c0-0.69-0.35-1.14-0.87-1.14C234.39,9.52,234.06,9.96,234.06,10.66z"/>
		</g>
		<g>
			<path d="M208.87,19.91h-2.89v-4.55h2.89v0.61h-2.18v1.33h2.06v0.59h-2.06v1.41h2.18V19.91z"/>
			<path d="M209.28,18.25c0-1.05,0.55-1.71,1.39-1.71c0.48,0,0.85,0.24,1.04,0.61h0.01v-1.78h0.68v4.55h-0.66v-0.56h-0.01
				c-0.2,0.38-0.57,0.62-1.06,0.62C209.84,19.96,209.28,19.29,209.28,18.25z M209.98,18.25c0,0.7,0.34,1.14,0.88,1.14
				c0.52,0,0.87-0.44,0.87-1.14c0-0.69-0.35-1.14-0.87-1.14C210.32,17.11,209.98,17.55,209.98,18.25z"/>
			<path d="M216.01,19.91h-0.65v-0.56h-0.02c-0.18,0.4-0.52,0.62-1.03,0.62c-0.72,0-1.16-0.47-1.16-1.23v-2.15h0.68v2.01
				c0,0.5,0.24,0.78,0.71,0.78c0.49,0,0.79-0.34,0.79-0.86v-1.93h0.68V19.91z"/>
			<path d="M218.94,17.73c-0.07-0.35-0.33-0.63-0.78-0.63c-0.53,0-0.87,0.44-0.87,1.15c0,0.73,0.35,1.15,0.88,1.15
				c0.42,0,0.69-0.23,0.77-0.61h0.66c-0.07,0.71-0.64,1.18-1.43,1.18c-0.95,0-1.57-0.65-1.57-1.72c0-1.05,0.62-1.72,1.56-1.72
				c0.85,0,1.37,0.55,1.43,1.2H218.94z"/>
			<path d="M220.01,18.96c0-0.58,0.44-0.94,1.23-0.98l0.91-0.05v-0.26c0-0.37-0.25-0.59-0.66-0.59c-0.39,0-0.64,0.19-0.7,0.49h-0.64
				c0.04-0.6,0.55-1.04,1.37-1.04c0.8,0,1.32,0.43,1.32,1.09v2.28h-0.65v-0.55h-0.02c-0.19,0.37-0.61,0.6-1.05,0.6
				C220.46,19.96,220.01,19.56,220.01,18.96z M222.15,18.66V18.4l-0.82,0.05c-0.41,0.03-0.64,0.21-0.64,0.49
				c0,0.29,0.24,0.48,0.61,0.48C221.78,19.42,222.15,19.1,222.15,18.66z"/>
			<path d="M224.43,15.81v0.78h0.63v0.54h-0.63v1.83c0,0.29,0.13,0.42,0.4,0.42c0.07,0,0.18-0.01,0.22-0.02v0.54
				c-0.08,0.02-0.23,0.03-0.38,0.03c-0.67,0-0.93-0.26-0.93-0.89v-1.9h-0.48V16.6h0.48v-0.78h0.69V15.81z"/>
			<path d="M225.65,15.66c0-0.22,0.18-0.39,0.39-0.39c0.22,0,0.39,0.17,0.39,0.39c0,0.21-0.17,0.39-0.39,0.39
				C225.83,16.05,225.65,15.88,225.65,15.66z M225.71,16.59h0.68v3.31h-0.68V16.59z"/>
			<path d="M227,18.25c0-1.07,0.63-1.72,1.57-1.72s1.57,0.65,1.57,1.72s-0.62,1.72-1.57,1.72S227,19.32,227,18.25z M229.45,18.25
				c0-0.73-0.35-1.16-0.88-1.16s-0.88,0.42-0.88,1.16s0.35,1.16,0.88,1.16C229.11,19.41,229.45,18.99,229.45,18.25z"/>
			<path d="M230.74,16.59h0.65v0.55h0.02c0.18-0.38,0.53-0.61,1.04-0.61c0.73,0,1.15,0.47,1.15,1.23v2.15h-0.68V17.9
				c0-0.5-0.23-0.77-0.71-0.77c-0.48,0-0.79,0.34-0.79,0.85v1.93h-0.68V16.59z"/>
			<path d="M235.99,18.66c0.06,0.45,0.49,0.72,1.1,0.72c0.58,0,0.99-0.3,0.99-0.7c0-0.35-0.24-0.57-0.85-0.71l-0.49-0.1
				c-0.91-0.19-1.32-0.61-1.32-1.27c0-0.78,0.68-1.31,1.65-1.31c0.96,0,1.62,0.55,1.64,1.34h-0.68c-0.04-0.46-0.42-0.74-0.97-0.74
				c-0.53,0-0.92,0.26-0.92,0.67c0,0.33,0.23,0.55,0.82,0.68l0.5,0.1c0.95,0.2,1.34,0.58,1.34,1.24c0,0.86-0.67,1.4-1.73,1.4
				c-1.03,0-1.71-0.51-1.76-1.32C235.31,18.66,235.99,18.66,235.99,18.66z"/>
			<path d="M242.4,18.25c0,1.05-0.55,1.71-1.38,1.71c-0.48,0-0.85-0.23-1.04-0.6h-0.02V21h-0.68v-4.41h0.66v0.57h0.01
				c0.2-0.38,0.58-0.62,1.06-0.62C241.85,16.54,242.4,17.2,242.4,18.25z M241.7,18.25c0-0.69-0.34-1.14-0.88-1.14
				c-0.52,0-0.87,0.45-0.87,1.14s0.35,1.14,0.87,1.14C241.37,19.39,241.7,18.94,241.7,18.25z"/>
			<path d="M245.83,18.93c-0.09,0.61-0.67,1.04-1.43,1.04c-0.97,0-1.56-0.66-1.56-1.7c0-1.04,0.6-1.73,1.53-1.73
				c0.92,0,1.49,0.65,1.49,1.65v0.23h-2.34v0.04c0,0.58,0.35,0.96,0.89,0.96c0.39,0,0.67-0.2,0.77-0.49
				C245.18,18.93,245.83,18.93,245.83,18.93z M243.53,17.94h1.66c-0.02-0.51-0.34-0.86-0.81-0.86
				C243.9,17.08,243.57,17.44,243.53,17.94z"/>
			<path d="M248.66,17.73c-0.07-0.35-0.33-0.63-0.78-0.63c-0.53,0-0.87,0.44-0.87,1.15c0,0.73,0.35,1.15,0.88,1.15
				c0.42,0,0.69-0.23,0.77-0.61h0.66c-0.07,0.71-0.64,1.18-1.43,1.18c-0.95,0-1.57-0.65-1.57-1.72c0-1.05,0.62-1.72,1.56-1.72
				c0.85,0,1.37,0.55,1.43,1.2H248.66z"/>
			<path d="M249.83,15.66c0-0.22,0.18-0.39,0.39-0.39c0.22,0,0.39,0.17,0.39,0.39c0,0.21-0.17,0.39-0.39,0.39
				C250,16.05,249.83,15.88,249.83,15.66z M249.88,16.59h0.68v3.31h-0.68V16.59z"/>
			<path d="M251.19,18.96c0-0.58,0.44-0.94,1.23-0.98l0.91-0.05v-0.26c0-0.37-0.25-0.59-0.66-0.59c-0.39,0-0.64,0.19-0.7,0.49h-0.64
				c0.04-0.6,0.55-1.04,1.37-1.04c0.8,0,1.32,0.43,1.32,1.09v2.28h-0.65v-0.55h-0.02c-0.19,0.37-0.61,0.6-1.05,0.6
				C251.64,19.96,251.19,19.56,251.19,18.96z M253.33,18.66V18.4l-0.82,0.05c-0.41,0.03-0.64,0.21-0.64,0.49
				c0,0.29,0.24,0.48,0.61,0.48C252.96,19.42,253.33,19.1,253.33,18.66z"/>
			<path d="M254.76,15.36h0.68v4.55h-0.68V15.36z"/>
			<path d="M256.17,15.66c0-0.22,0.18-0.39,0.39-0.39c0.22,0,0.39,0.17,0.39,0.39c0,0.21-0.17,0.39-0.39,0.39
				C256.35,16.05,256.17,15.88,256.17,15.66z M256.22,16.59h0.68v3.31h-0.68V16.59z"/>
			<path d="M258.81,16.53c0.77,0,1.27,0.43,1.3,1.04h-0.64c-0.04-0.32-0.27-0.52-0.66-0.52c-0.37,0-0.61,0.18-0.61,0.44
				c0,0.21,0.15,0.35,0.51,0.43l0.54,0.12c0.68,0.16,0.94,0.42,0.94,0.9c0,0.61-0.56,1.02-1.35,1.02c-0.83,0-1.33-0.41-1.39-1.04
				h0.67c0.06,0.35,0.3,0.52,0.72,0.52c0.41,0,0.66-0.17,0.66-0.44c0-0.21-0.12-0.34-0.49-0.42l-0.54-0.13
				c-0.63-0.14-0.94-0.45-0.94-0.93C257.53,16.94,258.04,16.53,258.81,16.53z"/>
			<path d="M261.62,15.81v0.78h0.63v0.54h-0.63v1.83c0,0.29,0.13,0.42,0.4,0.42c0.07,0,0.18-0.01,0.22-0.02v0.54
				c-0.08,0.02-0.23,0.03-0.38,0.03c-0.67,0-0.93-0.26-0.93-0.89v-1.9h-0.48V16.6h0.48v-0.78h0.69V15.81z"/>
		</g>
		<g id="XMLID_9_">
			<path id="XMLID_10_" d="M201.31,15.66c-0.02,0.06-0.34,1.15-1.11,2.27c-0.67,0.97-1.36,1.95-2.45,1.96
				c-1.07,0.02-1.41-0.64-2.64-0.64c-1.22,0-1.61,0.62-2.62,0.66c-1.05,0.04-1.85-1.05-2.52-2.02c-1.37-1.99-2.42-5.61-1.01-8.05
				c0.7-1.22,1.95-1.98,3.31-2c1.03-0.02,2.01,0.69,2.64,0.69s1.81-0.86,3.06-0.73c0.52,0.02,1.98,0.21,2.92,1.59
				c-0.07,0.05-1.75,1.02-1.73,3.04C199.19,14.85,201.29,15.65,201.31,15.66z M197.15,6.49c0.56-0.68,0.93-1.62,0.83-2.55
				c-0.8,0.03-1.78,0.54-2.35,1.21c-0.52,0.6-0.97,1.56-0.85,2.47C195.68,7.69,196.59,7.16,197.15,6.49z"/>
		</g>
	</g>
</g>
</svg>
