<?xml version="1.0" encoding="utf-8"?>
<!-- Generator: Adobe Illustrator 23.0.4, SVG Export Plug-In . SVG Version: 6.00 Build 0)  -->
<svg version="1.1" id="图层_1" xmlns="http://www.w3.org/2000/svg" xmlns:xlink="http://www.w3.org/1999/xlink" x="0px" y="0px"
	 viewBox="0 0 118 110" style="enable-background:new 0 0 118 110;" xml:space="preserve">
<style type="text/css">
	.st0{fill:url(#SVGID_1_);}
	.st1{fill:url(#SVGID_2_);}
	.st2{fill:url(#SVGID_3_);}
	.st3{fill:url(#SVGID_4_);}
	.st4{fill:url(#SVGID_5_);}
	.st5{fill:url(#SVGID_6_);}
	.st6{fill:url(#SVGID_7_);}
	.st7{fill:url(#SVGID_8_);}
	.st8{fill:url(#SVGID_9_);}
	.st9{fill:url(#SVGID_10_);}
	.st10{fill:url(#SVGID_11_);}
	.st11{fill:url(#SVGID_12_);}
	.st12{fill:url(#SVGID_13_);}
</style>
<g>
	<g>
		
			<linearGradient id="SVGID_1_" gradientUnits="userSpaceOnUse" x1="64.6044" y1="121.3318" x2="94.4293" y2="23.5403" gradientTransform="matrix(1 0 0 -1 0 110)">
			<stop  offset="0" style="stop-color:#F8C164"/>
			<stop  offset="0.2229" style="stop-color:#EF8F7A"/>
			<stop  offset="0.3236" style="stop-color:#DF8290"/>
			<stop  offset="0.4535" style="stop-color:#CE73A9"/>
			<stop  offset="0.5787" style="stop-color:#A777B0"/>
			<stop  offset="0.6726" style="stop-color:#8E79B5"/>
			<stop  offset="0.757" style="stop-color:#8483BD"/>
			<stop  offset="0.8993" style="stop-color:#6B9DD4"/>
			<stop  offset="1" style="stop-color:#55B4E7"/>
		</linearGradient>
		<path class="st0" d="M99.88,0H29.92c-1.5,0-2.71,1.22-2.71,2.71l0,0c0,1.5,1.22,2.71,2.71,2.71h69.96c4.44,0,8.05,3.6,8.05,8.05
			V51.3c0,1.5,1.22,2.71,2.71,2.71l0,0c1.5,0,2.71-1.22,2.71-2.71V13.48C113.36,6.03,107.33,0,99.88,0z"/>
		
			<linearGradient id="SVGID_2_" gradientUnits="userSpaceOnUse" x1="15.3434" y1="106.2133" x2="45.4826" y2="7.3911" gradientTransform="matrix(1 0 0 -1 0 110)">
			<stop  offset="0" style="stop-color:#F8C164"/>
			<stop  offset="0.2229" style="stop-color:#EF8F7A"/>
			<stop  offset="0.3236" style="stop-color:#DF8290"/>
			<stop  offset="0.4535" style="stop-color:#CE73A9"/>
			<stop  offset="0.5787" style="stop-color:#A777B0"/>
			<stop  offset="0.6726" style="stop-color:#8E79B5"/>
			<stop  offset="0.757" style="stop-color:#8483BD"/>
			<stop  offset="0.8993" style="stop-color:#6B9DD4"/>
			<stop  offset="1" style="stop-color:#55B4E7"/>
		</linearGradient>
		<path class="st1" d="M29.25,85.54v13.27L12.21,85.39c-1.45-1.14-2.3-2.89-2.3-4.73v-56.9c0-1.5-1.22-2.71-2.71-2.71l0,0
			c-1.5,0-2.71,1.22-2.71,2.71v56.89c0,3.53,1.59,6.81,4.37,9L34.68,110V87.61h37.39c1.5,0,2.71-1.22,2.71-2.71l0,0
			c0-1.5-1.22-2.71-2.71-2.71H32.6C30.75,82.18,29.25,83.69,29.25,85.54z"/>
		
			<linearGradient id="SVGID_3_" gradientUnits="userSpaceOnUse" x1="6.5991" y1="103.8913" x2="36.956" y2="4.3555" gradientTransform="matrix(1 0 0 -1 0 110)">
			<stop  offset="0" style="stop-color:#F8C164"/>
			<stop  offset="0.2229" style="stop-color:#EF8F7A"/>
			<stop  offset="0.3236" style="stop-color:#DF8290"/>
			<stop  offset="0.4535" style="stop-color:#CE73A9"/>
			<stop  offset="0.5787" style="stop-color:#A777B0"/>
			<stop  offset="0.6726" style="stop-color:#8E79B5"/>
			<stop  offset="0.757" style="stop-color:#8483BD"/>
			<stop  offset="0.8993" style="stop-color:#6B9DD4"/>
			<stop  offset="1" style="stop-color:#55B4E7"/>
		</linearGradient>
		<path class="st2" d="M18.02,59.46c-1.53,1.9-2.26,4.33-2.26,7.33c0,3.06,0.71,5.49,2.18,7.3c1.67,2.1,4.16,3.17,7.47,3.17
			c2.18,0,4.05-0.62,5.6-1.87c1.67-1.33,2.72-3.17,3.17-5.52h-3c-0.4,1.59-1.1,2.77-2.12,3.57c-0.96,0.74-2.21,1.1-3.68,1.1
			c-2.26,0-3.93-0.71-5.01-2.12c-1.02-1.33-1.53-3.2-1.53-5.63c0-2.35,0.51-4.22,1.56-5.58c1.1-1.5,2.75-2.24,4.93-2.24
			c1.47,0,2.66,0.31,3.62,0.96c0.96,0.65,1.61,1.67,1.95,3.03h3c-0.31-2.04-1.22-3.68-2.69-4.87c-1.53-1.25-3.48-1.84-5.83-1.84
			C22.15,56.26,19.72,57.3,18.02,59.46z"/>
		
			<linearGradient id="SVGID_4_" gradientUnits="userSpaceOnUse" x1="19.2363" y1="107.7455" x2="49.5932" y2="8.2095" gradientTransform="matrix(1 0 0 -1 0 110)">
			<stop  offset="0" style="stop-color:#F8C164"/>
			<stop  offset="0.2229" style="stop-color:#EF8F7A"/>
			<stop  offset="0.3236" style="stop-color:#DF8290"/>
			<stop  offset="0.4535" style="stop-color:#CE73A9"/>
			<stop  offset="0.5787" style="stop-color:#A777B0"/>
			<stop  offset="0.6726" style="stop-color:#8E79B5"/>
			<stop  offset="0.757" style="stop-color:#8483BD"/>
			<stop  offset="0.8993" style="stop-color:#6B9DD4"/>
			<stop  offset="1" style="stop-color:#55B4E7"/>
		</linearGradient>
		<rect x="37.35" y="56.26" class="st3" width="3" height="20.61"/>
		
			<linearGradient id="SVGID_5_" gradientUnits="userSpaceOnUse" x1="29.6647" y1="110.926" x2="60.0216" y2="11.3901" gradientTransform="matrix(1 0 0 -1 0 110)">
			<stop  offset="0" style="stop-color:#F8C164"/>
			<stop  offset="0.2229" style="stop-color:#EF8F7A"/>
			<stop  offset="0.3236" style="stop-color:#DF8290"/>
			<stop  offset="0.4535" style="stop-color:#CE73A9"/>
			<stop  offset="0.5787" style="stop-color:#A777B0"/>
			<stop  offset="0.6726" style="stop-color:#8E79B5"/>
			<stop  offset="0.757" style="stop-color:#8483BD"/>
			<stop  offset="0.8993" style="stop-color:#6B9DD4"/>
			<stop  offset="1" style="stop-color:#55B4E7"/>
		</linearGradient>
		<path class="st4" d="M57,76.87V62.23h-3v8.95c-0.26,1.08-0.74,1.95-1.42,2.6c-0.68,0.62-1.39,0.96-2.18,0.96
			c-1.16,0-2.01-0.31-2.52-0.88c-0.54-0.57-0.79-1.47-0.79-2.72v-8.92h-3v9.12c0,3.94,1.76,5.92,5.29,5.92
			c1.84,0,3.37-0.79,4.61-2.38v1.98L57,76.87L57,76.87z"/>
		
			<linearGradient id="SVGID_6_" gradientUnits="userSpaceOnUse" x1="43.7951" y1="115.2355" x2="74.152" y2="15.6997" gradientTransform="matrix(1 0 0 -1 0 110)">
			<stop  offset="0" style="stop-color:#F8C164"/>
			<stop  offset="0.2229" style="stop-color:#EF8F7A"/>
			<stop  offset="0.3236" style="stop-color:#DF8290"/>
			<stop  offset="0.4535" style="stop-color:#CE73A9"/>
			<stop  offset="0.5787" style="stop-color:#A777B0"/>
			<stop  offset="0.6726" style="stop-color:#8E79B5"/>
			<stop  offset="0.757" style="stop-color:#8483BD"/>
			<stop  offset="0.8993" style="stop-color:#6B9DD4"/>
			<stop  offset="1" style="stop-color:#55B4E7"/>
		</linearGradient>
		<path class="st5" d="M60.42,56.26v20.61h2.8v-1.76c1.02,1.42,2.52,2.15,4.53,2.15c2.15,0,3.82-0.76,5.07-2.29
			c1.13-1.42,1.7-3.26,1.7-5.49c0-2.15-0.57-3.94-1.67-5.35c-1.22-1.53-2.86-2.29-4.95-2.29c-1.81,0-3.28,0.85-4.47,2.58v-8.15
			L60.42,56.26L60.42,56.26z M64.5,65.6c0.68-0.91,1.59-1.33,2.72-1.33c1.47,0,2.58,0.48,3.28,1.5c0.62,0.85,0.93,2.1,0.93,3.71
			s-0.31,2.86-0.88,3.77c-0.71,1.05-1.78,1.59-3.26,1.59c-1.3,0-2.32-0.54-3.03-1.56c-0.62-0.93-0.93-2.12-0.93-3.6v-0.25
			C63.34,67.84,63.7,66.56,64.5,65.6z"/>
		
			<linearGradient id="SVGID_7_" gradientUnits="userSpaceOnUse" x1="43.7324" y1="115.6809" x2="74.0893" y2="16.145" gradientTransform="matrix(1 0 0 -1 0 110)">
			<stop  offset="0" style="stop-color:#F8C164"/>
			<stop  offset="0.2229" style="stop-color:#EF8F7A"/>
			<stop  offset="0.3236" style="stop-color:#DF8290"/>
			<stop  offset="0.4535" style="stop-color:#CE73A9"/>
			<stop  offset="0.5787" style="stop-color:#A777B0"/>
			<stop  offset="0.6726" style="stop-color:#8E79B5"/>
			<stop  offset="0.757" style="stop-color:#8483BD"/>
			<stop  offset="0.8993" style="stop-color:#6B9DD4"/>
			<stop  offset="1" style="stop-color:#55B4E7"/>
		</linearGradient>
		<path class="st6" d="M55.16,12.89c-10.16,0-16.48,7.31-16.48,19.09c0,5.23,1.44,9.78,4.15,13.15c2.98,3.69,7.24,5.64,12.32,5.64
			s9.34-1.95,12.33-5.64c2.72-3.35,4.15-7.9,4.15-13.15C71.64,20.2,65.32,12.89,55.16,12.89z M63.63,42.01
			c-2.02,2.48-4.95,3.79-8.47,3.79c-3.53,0-6.45-1.31-8.46-3.79c-1.98-2.44-3.07-6-3.07-10.04c0-4.33,1.04-7.92,3-10.39
			c1.98-2.48,4.85-3.74,8.52-3.74c3.71,0,6.58,1.26,8.55,3.74c1.94,2.45,2.97,6.04,2.97,10.39C66.68,36,65.6,39.57,63.63,42.01z"/>
		
			<linearGradient id="SVGID_8_" gradientUnits="userSpaceOnUse" x1="19.7335" y1="108.3616" x2="50.0905" y2="8.8258" gradientTransform="matrix(1 0 0 -1 0 110)">
			<stop  offset="0" style="stop-color:#F8C164"/>
			<stop  offset="0.2229" style="stop-color:#EF8F7A"/>
			<stop  offset="0.3236" style="stop-color:#DF8290"/>
			<stop  offset="0.4535" style="stop-color:#CE73A9"/>
			<stop  offset="0.5787" style="stop-color:#A777B0"/>
			<stop  offset="0.6726" style="stop-color:#8E79B5"/>
			<stop  offset="0.757" style="stop-color:#8483BD"/>
			<stop  offset="0.8993" style="stop-color:#6B9DD4"/>
			<stop  offset="1" style="stop-color:#55B4E7"/>
		</linearGradient>
		<rect x="27.91" y="23.97" class="st7" width="5.18" height="25.94"/>
		
			<linearGradient id="SVGID_9_" gradientUnits="userSpaceOnUse" x1="74.71" y1="125.1287" x2="105.0669" y2="25.5927" gradientTransform="matrix(1 0 0 -1 0 110)">
			<stop  offset="0" style="stop-color:#F8C164"/>
			<stop  offset="0.2229" style="stop-color:#EF8F7A"/>
			<stop  offset="0.3236" style="stop-color:#DF8290"/>
			<stop  offset="0.4535" style="stop-color:#CE73A9"/>
			<stop  offset="0.5787" style="stop-color:#A777B0"/>
			<stop  offset="0.6726" style="stop-color:#8E79B5"/>
			<stop  offset="0.757" style="stop-color:#8483BD"/>
			<stop  offset="0.8993" style="stop-color:#6B9DD4"/>
			<stop  offset="1" style="stop-color:#55B4E7"/>
		</linearGradient>
		<path class="st8" d="M89.95,50.9c2.26,0,6.51-0.47,9.58-3.6l0,0c2.84-2.9,3.76-7.28,2.27-10.89c-1.24-3.03-4.1-5.46-7.65-6.5
			c-1.6-0.46-4.17-1.16-6.05-1.66c-2-0.54-4.22-1.24-5.26-2.76c-0.88-1.29-1.03-3.02-0.39-4.42c0.76-1.64,2.33-2.82,4.45-3.3
			c2.85-0.66,6.14,0.03,8.18,1.7c1.44,1.19,1.89,2.69,2.04,3.47l0.16,0.88h4.95l-0.15-1.2c-0.16-1.27-0.85-4.5-3.84-6.97
			c-3.21-2.65-8.09-3.71-12.44-2.71c-3.65,0.83-6.43,2.98-7.85,6.06c-1.35,2.95-1.04,6.59,0.8,9.29c1.99,2.92,5.21,3.98,8.07,4.75
			c1.85,0.5,4.38,1.18,5.94,1.64c2.07,0.61,3.78,2,4.45,3.62c0.74,1.8,0.25,4.03-1.23,5.53c-2.04,2.09-5.47,2.38-8,1.95
			c-2.89-0.48-6.26-2.44-7.28-5.72l-0.23-0.75h-5.03l0.29,1.3c1.15,5.07,5.74,9.11,11.44,10.06C88.1,50.83,89.03,50.9,89.95,50.9z"
			/>
		
			<linearGradient id="SVGID_10_" gradientUnits="userSpaceOnUse" x1="25.8025" y1="110.2127" x2="56.1595" y2="10.6768" gradientTransform="matrix(1 0 0 -1 0 110)">
			<stop  offset="0" style="stop-color:#F8C164"/>
			<stop  offset="0.2229" style="stop-color:#EF8F7A"/>
			<stop  offset="0.3236" style="stop-color:#DF8290"/>
			<stop  offset="0.4535" style="stop-color:#CE73A9"/>
			<stop  offset="0.5787" style="stop-color:#A777B0"/>
			<stop  offset="0.6726" style="stop-color:#8E79B5"/>
			<stop  offset="0.757" style="stop-color:#8483BD"/>
			<stop  offset="0.8993" style="stop-color:#6B9DD4"/>
			<stop  offset="1" style="stop-color:#55B4E7"/>
		</linearGradient>
		<path class="st9" d="M30.5,11.78c-1.88,0-3.41,1.53-3.41,3.4c0,1.88,1.53,3.41,3.41,3.41c1.88,0,3.41-1.53,3.41-3.41
			C33.9,13.31,32.37,11.78,30.5,11.78z"/>
		
			<linearGradient id="SVGID_11_" gradientUnits="userSpaceOnUse" x1="8.0785" y1="109.9118" x2="43.9901" y2="14.002" gradientTransform="matrix(1 0 0 -1 0 110)">
			<stop  offset="0" style="stop-color:#F8C164"/>
			<stop  offset="0.2229" style="stop-color:#EF8F7A"/>
			<stop  offset="0.3236" style="stop-color:#DF8290"/>
			<stop  offset="0.4535" style="stop-color:#CE73A9"/>
			<stop  offset="0.5787" style="stop-color:#A777B0"/>
			<stop  offset="0.6726" style="stop-color:#8E79B5"/>
			<stop  offset="0.757" style="stop-color:#8483BD"/>
			<stop  offset="0.8993" style="stop-color:#6B9DD4"/>
			<stop  offset="1" style="stop-color:#55B4E7"/>
		</linearGradient>
		<path class="st10" d="M22.06,20.24V16.9V2.7c0-1.47-1.19-2.67-2.67-2.67H3.04c-1.47,0-2.67,1.19-2.67,2.67v11.53
			c0,1.47,1.19,2.67,2.67,2.67h14.61c0.51,0,1.01,0.19,1.38,0.54L22.06,20.24z"/>
		
			<linearGradient id="SVGID_12_" gradientUnits="userSpaceOnUse" x1="69.5566" y1="122.8209" x2="99.6643" y2="24.1023" gradientTransform="matrix(1 0 0 -1 0 110)">
			<stop  offset="0" style="stop-color:#F8C164"/>
			<stop  offset="0.2229" style="stop-color:#EF8F7A"/>
			<stop  offset="0.3236" style="stop-color:#DF8290"/>
			<stop  offset="0.4535" style="stop-color:#CE73A9"/>
			<stop  offset="0.5787" style="stop-color:#A777B0"/>
			<stop  offset="0.6726" style="stop-color:#8E79B5"/>
			<stop  offset="0.757" style="stop-color:#8483BD"/>
			<stop  offset="0.8993" style="stop-color:#6B9DD4"/>
			<stop  offset="1" style="stop-color:#55B4E7"/>
		</linearGradient>
		<path class="st11" d="M109.83,63.91H83.31c-1.93,0-3.5,1.57-3.5,3.5v16.67c0,1.93,1.57,3.5,3.5,3.5h23.52
			c0.51,0,1.01,0.19,1.38,0.54l5.11,4.74v-5.28V67.41C113.33,65.47,111.76,63.91,109.83,63.91z"/>
	</g>
	
		<linearGradient id="SVGID_13_" gradientUnits="userSpaceOnUse" x1="100.5524" y1="53.6337" x2="132.4383" y2="-6.1816" gradientTransform="matrix(1 0 0 -1 0 110)">
		<stop  offset="0" style="stop-color:#F8C164"/>
		<stop  offset="0.2229" style="stop-color:#EF8F7A"/>
		<stop  offset="0.3236" style="stop-color:#DF8290"/>
		<stop  offset="0.4535" style="stop-color:#CE73A9"/>
		<stop  offset="0.5787" style="stop-color:#A777B0"/>
		<stop  offset="0.6726" style="stop-color:#8E79B5"/>
		<stop  offset="0.757" style="stop-color:#8483BD"/>
		<stop  offset="0.8993" style="stop-color:#6B9DD4"/>
		<stop  offset="1" style="stop-color:#55B4E7"/>
	</linearGradient>
	<path class="st12" d="M114.98,72.34h-11.86c-0.51,0-1.01,0.19-1.38,0.54L97,77.26v-4.93v-10.8c0-1.47,1.19-2.66,2.66-2.66h15.32
		c1.47,0,2.66,1.19,2.66,2.66v8.15C117.63,71.15,116.44,72.34,114.98,72.34z"/>
</g>
</svg>
