<?xml version="1.0" encoding="utf-8"?>
<!-- Generator: Adobe Illustrator 23.0.4, SVG Export Plug-In . SVG Version: 6.00 Build 0)  -->
<svg version="1.1" id="图层_1" xmlns="http://www.w3.org/2000/svg" xmlns:xlink="http://www.w3.org/1999/xlink" x="0px" y="0px"
	 viewBox="0 0 264 22" style="enable-background:new 0 0 264 22;" xml:space="preserve">
<style type="text/css">
	.st0{fill:#FFFFFF;}
</style>
<g>
	<g>
		<g>
			<g>
				<path class="st0" d="M83.65,7.81h-3.6l-1.77-4.47h-4.52l-1.85,4.22h-3.6l2.8-6.54h3.65h6.01L83.65,7.81z M78.08,13.88
					c0.25,0,0.46-0.08,0.63-0.24c0.16-0.17,0.24-0.37,0.24-0.6v-1.85h-5.8v6.05c0,0.25,0.09,0.46,0.26,0.63
					c0.17,0.16,0.38,0.24,0.61,0.24h8.68l-0.9,2.59h-9.08c-0.42,0-0.81-0.08-1.17-0.23s-0.68-0.37-0.95-0.64
					c-0.28-0.27-0.49-0.59-0.64-0.95s-0.23-0.75-0.23-1.17V8.62h12.66v4.85c0,0.42-0.08,0.81-0.23,1.17
					c-0.15,0.37-0.37,0.68-0.64,0.95c-0.27,0.27-0.59,0.49-0.95,0.64c-0.37,0.15-0.75,0.23-1.17,0.23h-4.05l0.95-2.59h1.78V13.88z
					 M87.99,2.33v14.6h-3.16V2.33H87.99z M92.26,17.72c0,0.41-0.08,0.8-0.23,1.16c-0.16,0.35-0.37,0.67-0.64,0.94
					s-0.59,0.49-0.95,0.64s-0.75,0.23-1.17,0.23h-2.23l1-2.67h0.21c0.25,0,0.46-0.08,0.62-0.24s0.24-0.37,0.24-0.63V1h3.16v16.72
					H92.26z"/>
				<path class="st0" d="M109.53,1.03v0.98h10.08v2.7h-10.08v4.16h-3.78V4.7H95.7V2h10.05V1.03H109.53z M107.24,13.09h-4.16v7.6
					h-3.24v-7.6H95.7v-2.15h4.14v-1.5h3.24v1.5h4.16C107.24,10.94,107.24,13.09,107.24,13.09z M95.7,20.69l1.01-6.59h2.53
					l-1.03,6.59H95.7z M100.73,8.79h-4.79l3.89-3.41h4.79L100.73,8.79z M103.68,14.1h2.53l1.03,6.59h-2.53L103.68,14.1z
					 M119.61,13.09h-4.17v7.6h-3.24v-7.6h-4.14v-2.15h4.14v-1.5h3.24v1.5h4.17V13.09z M108.06,20.69l1.01-6.59h2.53l-1.04,6.59
					H108.06z M114.41,8.79l-3.89-3.41h4.79l3.9,3.41H114.41z M116.04,14.1h2.53l1.04,6.59h-2.53L116.04,14.1z"/>
				<path class="st0" d="M123.12,11.16l3.21-2.78h-3.27v-2.7h4.68V4.7h-0.93h-2.02h-1.74l1.28-3.65h3.76L127.77,2h7.13v2.7h-3.38
					v0.98h3.54v2.69h-2.01l2.37,2.78h-3.78l-1.74-2.07l-2.39,2.07h-4.39V11.16z M123.39,20.66v-2.37V17.2v-1.85v-1.09v-2.13v-0.27
					h19.31h3.95v2.42v1.09v1.74v0.11c-0.02,0.49-0.11,0.94-0.26,1.36s-0.37,0.78-0.64,1.09c-0.28,0.31-0.59,0.55-0.95,0.73
					c-0.37,0.18-0.75,0.27-1.15,0.27h-16.39h-3.87V20.66z M127.26,15.35h15.44v-1.09h-15.44C127.26,14.26,127.26,15.35,127.26,15.35
					z M127.26,18.26h14.57c0.26,0,0.46-0.1,0.63-0.29c0.17-0.2,0.24-0.43,0.24-0.72V17.2h-15.44
					C127.26,17.2,127.26,18.26,127.26,18.26z M136.16,1.05h10.81V1.3v2.45v4.41c0,0.42-0.08,0.81-0.23,1.17
					c-0.15,0.37-0.37,0.68-0.64,0.95c-0.28,0.27-0.59,0.49-0.95,0.64c-0.37,0.15-0.75,0.23-1.17,0.23h-7.82v-1.06V8.46V3.75V1.3
					V1.05z M143.19,3.75h-3.24v4.71h2.4c0.23,0,0.43-0.08,0.6-0.24c0.17-0.16,0.25-0.36,0.25-0.6L143.19,3.75L143.19,3.75z"/>
				<path class="st0" d="M156.04,10.45h-5.58v-2.8h23.83v2.8h-14.21l-3.24,6.86h11.87l-1.8-3.65h3.98l3.4,6.97h-3.95l-0.28-0.52
					h-14.54h-4.06L156.04,10.45z M152.06,1.08h20.62v2.8h-20.62V1.08z"/>
			</g>
		</g>
		<path class="st0" d="M34.51,5.7h23.33c2.42,0,4.39-1.96,4.39-4.39l0,0H34.75c-2.91,0-5.59,1.96-6.14,4.82
			c-0.75,3.84,2.19,7.22,5.9,7.22h7.84c0.9,0,1.63,0.73,1.63,1.63c0,0.9-0.73,1.63-1.63,1.63H10.06c-2.64,0-5.06-1.78-5.57-4.37
			C3.82,8.76,6.48,5.7,9.84,5.7h8.5c2.42,0,4.39-1.96,4.39-4.39l0,0H10.28c-5.14,0-9.74,3.74-10.24,8.86
			C-0.53,16.04,4.09,21,9.84,21h32.27c2.91,0,5.59-1.96,6.14-4.82c0.75-3.84-2.19-7.22-5.9-7.22h-7.84c-0.9,0-1.63-0.73-1.63-1.63
			C32.88,6.43,33.61,5.7,34.51,5.7z"/>
	</g>
	<g>
		<g>
			<path class="st0" d="M208.52,11.08h-1.73l-0.42,1.23h-0.73l1.64-4.55h0.76l1.64,4.55h-0.75L208.52,11.08z M206.97,10.51h1.37
				l-0.68-1.99h-0.02L206.97,10.51z"/>
			<path class="st0" d="M212.89,12.31h-0.65v-0.56h-0.02c-0.18,0.4-0.52,0.62-1.03,0.62c-0.72,0-1.16-0.47-1.16-1.23V9h0.68v2.01
				c0,0.5,0.24,0.78,0.71,0.78c0.49,0,0.79-0.34,0.79-0.86V9h0.68L212.89,12.31L212.89,12.31z"/>
			<path class="st0" d="M214.53,8.21V9h0.63v0.54h-0.63v1.83c0,0.29,0.13,0.42,0.4,0.42c0.07,0,0.18-0.01,0.22-0.02v0.54
				c-0.08,0.02-0.23,0.03-0.38,0.03c-0.67,0-0.93-0.26-0.93-0.89v-1.9h-0.48V9h0.48V8.21H214.53z"/>
			<path class="st0" d="M215.84,7.76h0.67v1.79h0.02c0.18-0.39,0.55-0.61,1.05-0.61c0.73,0,1.16,0.49,1.16,1.24v2.14h-0.68v-2
				c0-0.49-0.25-0.78-0.72-0.78c-0.5,0-0.81,0.35-0.81,0.87v1.92h-0.68V7.76H215.84z"/>
			<path class="st0" d="M219.35,10.65c0-1.07,0.63-1.72,1.57-1.72c0.95,0,1.57,0.65,1.57,1.72s-0.62,1.72-1.57,1.72
				S219.35,11.72,219.35,10.65z M221.8,10.65c0-0.73-0.35-1.16-0.88-1.16s-0.88,0.42-0.88,1.16s0.35,1.16,0.88,1.16
				C221.46,11.81,221.8,11.39,221.8,10.65z"/>
			<path class="st0" d="M223.12,9h0.65v0.56h0.02c0.11-0.39,0.41-0.62,0.8-0.62c0.1,0,0.18,0.02,0.23,0.03V9.6
				c-0.05-0.02-0.17-0.04-0.31-0.04c-0.44,0-0.71,0.29-0.71,0.76v1.99h-0.68V9z"/>
			<path class="st0" d="M225.31,8.07c0-0.22,0.18-0.39,0.39-0.39s0.39,0.17,0.39,0.39c0,0.21-0.17,0.39-0.39,0.39
				S225.31,8.28,225.31,8.07z M225.36,9h0.68v3.31h-0.68V9z"/>
			<path class="st0" d="M228.05,8.94c0.77,0,1.27,0.43,1.3,1.04h-0.64c-0.04-0.32-0.27-0.52-0.66-0.52c-0.37,0-0.61,0.18-0.61,0.44
				c0,0.21,0.15,0.35,0.51,0.43l0.54,0.12c0.68,0.16,0.94,0.42,0.94,0.9c0,0.61-0.56,1.02-1.35,1.02c-0.83,0-1.33-0.41-1.39-1.04
				h0.67c0.06,0.35,0.3,0.52,0.72,0.52c0.41,0,0.66-0.17,0.66-0.44c0-0.21-0.12-0.34-0.49-0.42l-0.54-0.13
				c-0.63-0.14-0.94-0.45-0.94-0.93C226.77,9.34,227.29,8.94,228.05,8.94z"/>
			<path class="st0" d="M232.84,11.34c-0.09,0.61-0.67,1.04-1.43,1.04c-0.97,0-1.56-0.66-1.56-1.7s0.6-1.73,1.53-1.73
				c0.92,0,1.49,0.65,1.49,1.65v0.23h-2.34v0.04c0,0.58,0.35,0.96,0.89,0.96c0.39,0,0.67-0.2,0.77-0.49H232.84z M230.54,10.35h1.66
				c-0.02-0.51-0.34-0.86-0.81-0.86S230.57,9.85,230.54,10.35z"/>
			<path class="st0" d="M233.35,10.65c0-1.05,0.55-1.71,1.39-1.71c0.48,0,0.85,0.24,1.04,0.61h0.01V7.76h0.68v4.55h-0.66v-0.56
				h-0.01c-0.2,0.38-0.57,0.62-1.06,0.62C233.9,12.37,233.35,11.7,233.35,10.65z M234.05,10.65c0,0.7,0.34,1.14,0.88,1.14
				c0.52,0,0.87-0.44,0.87-1.14c0-0.69-0.35-1.14-0.87-1.14C234.38,9.52,234.05,9.96,234.05,10.65z"/>
		</g>
		<g>
			<path class="st0" d="M208.86,19.9h-2.89v-4.55h2.89v0.61h-2.18v1.33h2.06v0.59h-2.06v1.41h2.18V19.9z"/>
			<path class="st0" d="M209.27,18.25c0-1.05,0.55-1.71,1.39-1.71c0.48,0,0.85,0.24,1.04,0.61h0.01v-1.78h0.68v4.55h-0.66v-0.56
				h-0.01c-0.2,0.38-0.57,0.62-1.06,0.62C209.83,19.96,209.27,19.29,209.27,18.25z M209.97,18.25c0,0.7,0.34,1.14,0.88,1.14
				c0.52,0,0.87-0.44,0.87-1.14c0-0.69-0.35-1.14-0.87-1.14C210.31,17.11,209.97,17.55,209.97,18.25z"/>
			<path class="st0" d="M216,19.9h-0.65v-0.56h-0.02c-0.18,0.4-0.52,0.62-1.03,0.62c-0.72,0-1.16-0.47-1.16-1.23v-2.15h0.68v2.01
				c0,0.5,0.24,0.78,0.71,0.78c0.49,0,0.79-0.34,0.79-0.86v-1.93H216V19.9z"/>
			<path class="st0" d="M218.93,17.73c-0.07-0.35-0.33-0.63-0.78-0.63c-0.53,0-0.87,0.44-0.87,1.15c0,0.73,0.35,1.15,0.88,1.15
				c0.42,0,0.69-0.23,0.77-0.61h0.66c-0.07,0.71-0.64,1.18-1.43,1.18c-0.95,0-1.57-0.65-1.57-1.72c0-1.05,0.62-1.72,1.56-1.72
				c0.85,0,1.37,0.55,1.43,1.2C219.58,17.73,218.93,17.73,218.93,17.73z"/>
			<path class="st0" d="M220,18.96c0-0.58,0.44-0.94,1.23-0.98l0.91-0.05v-0.26c0-0.37-0.25-0.59-0.66-0.59
				c-0.39,0-0.64,0.19-0.7,0.49h-0.64c0.04-0.6,0.55-1.04,1.37-1.04c0.8,0,1.32,0.43,1.32,1.09v2.28h-0.65v-0.55h-0.02
				c-0.19,0.37-0.61,0.6-1.05,0.6C220.45,19.96,220,19.56,220,18.96z M222.14,18.66V18.4l-0.82,0.05c-0.41,0.03-0.64,0.21-0.64,0.49
				c0,0.29,0.24,0.48,0.61,0.48C221.77,19.42,222.14,19.09,222.14,18.66z"/>
			<path class="st0" d="M224.42,15.8v0.78h0.63v0.54h-0.63v1.83c0,0.29,0.13,0.42,0.4,0.42c0.07,0,0.18-0.01,0.22-0.02v0.54
				c-0.08,0.02-0.23,0.03-0.38,0.03c-0.67,0-0.93-0.26-0.93-0.89v-1.9h-0.48v-0.54h0.48V15.8H224.42z"/>
			<path class="st0" d="M225.64,15.66c0-0.22,0.18-0.39,0.39-0.39c0.22,0,0.39,0.17,0.39,0.39c0,0.21-0.17,0.39-0.39,0.39
				C225.82,16.05,225.64,15.88,225.64,15.66z M225.7,16.59h0.68v3.31h-0.68V16.59z"/>
			<path class="st0" d="M226.99,18.25c0-1.07,0.63-1.72,1.57-1.72s1.57,0.65,1.57,1.72s-0.62,1.72-1.57,1.72
				S226.99,19.31,226.99,18.25z M229.44,18.25c0-0.73-0.35-1.16-0.88-1.16s-0.88,0.42-0.88,1.16s0.35,1.16,0.88,1.16
				C229.1,19.41,229.44,18.98,229.44,18.25z"/>
			<path class="st0" d="M230.73,16.59h0.65v0.55h0.02c0.18-0.38,0.53-0.61,1.04-0.61c0.73,0,1.15,0.47,1.15,1.23v2.15h-0.68V17.9
				c0-0.5-0.23-0.77-0.71-0.77c-0.48,0-0.79,0.34-0.79,0.85v1.93h-0.68V16.59z"/>
			<path class="st0" d="M235.98,18.66c0.06,0.45,0.49,0.72,1.1,0.72c0.58,0,0.99-0.3,0.99-0.7c0-0.35-0.24-0.57-0.85-0.71l-0.49-0.1
				c-0.91-0.19-1.32-0.61-1.32-1.27c0-0.78,0.68-1.31,1.65-1.31c0.96,0,1.62,0.55,1.64,1.34h-0.68c-0.04-0.46-0.42-0.74-0.97-0.74
				c-0.53,0-0.92,0.26-0.92,0.67c0,0.33,0.23,0.55,0.82,0.68l0.5,0.1c0.95,0.2,1.34,0.58,1.34,1.24c0,0.86-0.67,1.4-1.73,1.4
				c-1.03,0-1.71-0.51-1.76-1.32H235.98z"/>
			<path class="st0" d="M242.39,18.25c0,1.05-0.55,1.71-1.38,1.71c-0.48,0-0.85-0.23-1.04-0.6h-0.02V21h-0.68v-4.41h0.66v0.57h0.01
				c0.2-0.38,0.58-0.62,1.06-0.62C241.84,16.53,242.39,17.2,242.39,18.25z M241.69,18.25c0-0.69-0.34-1.14-0.88-1.14
				c-0.52,0-0.87,0.45-0.87,1.14c0,0.69,0.35,1.14,0.87,1.14C241.36,19.38,241.69,18.94,241.69,18.25z"/>
			<path class="st0" d="M245.82,18.93c-0.09,0.61-0.67,1.04-1.43,1.04c-0.97,0-1.56-0.66-1.56-1.7s0.6-1.73,1.53-1.73
				c0.92,0,1.49,0.65,1.49,1.65v0.23h-2.34v0.04c0,0.58,0.35,0.96,0.89,0.96c0.39,0,0.67-0.2,0.77-0.49H245.82z M243.52,17.94h1.66
				c-0.02-0.51-0.34-0.86-0.81-0.86C243.89,17.08,243.56,17.44,243.52,17.94z"/>
			<path class="st0" d="M248.65,17.73c-0.07-0.35-0.33-0.63-0.78-0.63c-0.53,0-0.87,0.44-0.87,1.15c0,0.73,0.35,1.15,0.88,1.15
				c0.42,0,0.69-0.23,0.77-0.61h0.66c-0.07,0.71-0.64,1.18-1.43,1.18c-0.95,0-1.57-0.65-1.57-1.72c0-1.05,0.62-1.72,1.56-1.72
				c0.85,0,1.37,0.55,1.43,1.2C249.3,17.73,248.65,17.73,248.65,17.73z"/>
			<path class="st0" d="M249.82,15.66c0-0.22,0.18-0.39,0.39-0.39c0.22,0,0.39,0.17,0.39,0.39c0,0.21-0.17,0.39-0.39,0.39
				S249.82,15.88,249.82,15.66z M249.87,16.59h0.68v3.31h-0.68V16.59z"/>
			<path class="st0" d="M251.18,18.96c0-0.58,0.44-0.94,1.23-0.98l0.91-0.05v-0.26c0-0.37-0.25-0.59-0.66-0.59
				c-0.39,0-0.64,0.19-0.7,0.49h-0.64c0.04-0.6,0.55-1.04,1.37-1.04c0.8,0,1.32,0.43,1.32,1.09v2.28h-0.65v-0.55h-0.02
				c-0.19,0.37-0.61,0.6-1.05,0.6C251.63,19.96,251.18,19.56,251.18,18.96z M253.32,18.66V18.4l-0.82,0.05
				c-0.41,0.03-0.64,0.21-0.64,0.49c0,0.29,0.24,0.48,0.61,0.48C252.95,19.42,253.32,19.09,253.32,18.66z"/>
			<path class="st0" d="M254.75,15.36h0.68v4.55h-0.68V15.36z"/>
			<path class="st0" d="M256.16,15.66c0-0.22,0.18-0.39,0.39-0.39c0.22,0,0.39,0.17,0.39,0.39c0,0.21-0.17,0.39-0.39,0.39
				C256.34,16.05,256.16,15.88,256.16,15.66z M256.21,16.59h0.68v3.31h-0.68V16.59z"/>
			<path class="st0" d="M258.8,16.53c0.77,0,1.27,0.43,1.3,1.04h-0.64c-0.04-0.32-0.27-0.52-0.66-0.52c-0.37,0-0.61,0.18-0.61,0.44
				c0,0.21,0.15,0.35,0.51,0.43l0.54,0.12c0.68,0.16,0.94,0.42,0.94,0.9c0,0.61-0.56,1.02-1.35,1.02c-0.83,0-1.33-0.41-1.39-1.04
				h0.67c0.06,0.35,0.3,0.52,0.72,0.52c0.41,0,0.66-0.17,0.66-0.44c0-0.21-0.12-0.34-0.49-0.42l-0.54-0.13
				c-0.63-0.14-0.94-0.45-0.94-0.93C257.52,16.94,258.03,16.53,258.8,16.53z"/>
			<path class="st0" d="M261.61,15.8v0.78h0.63v0.54h-0.63v1.83c0,0.29,0.13,0.42,0.4,0.42c0.07,0,0.18-0.01,0.22-0.02v0.54
				c-0.08,0.02-0.23,0.03-0.38,0.03c-0.67,0-0.93-0.26-0.93-0.89v-1.9h-0.48v-0.54h0.48V15.8H261.61z"/>
		</g>
		<g id="XMLID_17_">
			<path id="XMLID_18_" class="st0" d="M201.3,15.66c-0.02,0.06-0.34,1.15-1.11,2.27c-0.67,0.97-1.36,1.95-2.45,1.96
				c-1.07,0.02-1.41-0.64-2.64-0.64c-1.22,0-1.61,0.62-2.62,0.66c-1.05,0.04-1.85-1.05-2.52-2.02c-1.37-1.99-2.42-5.61-1.01-8.05
				c0.7-1.22,1.95-1.98,3.31-2c1.03-0.02,2.01,0.69,2.64,0.69s1.81-0.86,3.06-0.73c0.52,0.02,1.98,0.21,2.92,1.59
				c-0.07,0.05-1.75,1.02-1.73,3.04C199.18,14.84,201.28,15.65,201.3,15.66z M197.14,6.49c0.56-0.68,0.93-1.62,0.83-2.55
				c-0.8,0.03-1.78,0.54-2.35,1.21c-0.52,0.6-0.97,1.56-0.85,2.47C195.67,7.69,196.58,7.16,197.14,6.49z"/>
		</g>
	</g>
</g>
</svg>
