<?xml version="1.0" encoding="utf-8"?>
<!-- Generator: Adobe Illustrator 23.0.4, SVG Export Plug-In . SVG Version: 6.00 Build 0)  -->
<svg version="1.1" id="图层_1" xmlns="http://www.w3.org/2000/svg" xmlns:xlink="http://www.w3.org/1999/xlink" x="0px" y="0px"
	 viewBox="0 0 301 24" style="enable-background:new 0 0 301 24;" xml:space="preserve">
<style type="text/css">
	.st0{fill:#FFFFFF;}
</style>
<g>
	<g>
		<g>
			<g>
				<path class="st0" d="M92.01,8.49h-3.95l-1.94-4.91h-4.97L79.1,8.22h-3.95l3.08-7.19h4.02h6.62L92.01,8.49z M85.89,15.17
					c0.28,0,0.51-0.09,0.69-0.27s0.27-0.4,0.27-0.66V12.2h-6.38v6.65c0,0.28,0.1,0.51,0.28,0.69c0.19,0.18,0.41,0.27,0.68,0.27h9.54
					l-0.99,2.84h-9.99c-0.46,0-0.89-0.08-1.29-0.25s-0.75-0.41-1.05-0.7c-0.3-0.3-0.53-0.65-0.7-1.05s-0.26-0.83-0.26-1.29V9.39
					h13.93v5.33c0,0.46-0.08,0.89-0.25,1.29s-0.41,0.75-0.7,1.05c-0.3,0.3-0.65,0.53-1.04,0.7c-0.4,0.17-0.83,0.25-1.29,0.25h-4.46
					l1.04-2.84H85.89z M96.79,2.47v16.06h-3.47V2.47H96.79z M101.49,19.39c0,0.46-0.08,0.88-0.25,1.27
					c-0.17,0.39-0.41,0.73-0.71,1.03c-0.3,0.3-0.65,0.53-1.05,0.7s-0.83,0.25-1.29,0.25h-2.46l1.1-2.94h0.24
					c0.28,0,0.51-0.09,0.68-0.27c0.18-0.18,0.27-0.41,0.27-0.69V1h3.47C101.49,1,101.49,19.39,101.49,19.39z"/>
				<path class="st0" d="M120.48,1.03v1.08h11.09v2.97h-11.09v4.58h-4.16V5.08h-11.05V2.11h11.05V1.03H120.48z M117.96,14.3h-4.58
					v8.36h-3.57V14.3h-4.55v-2.37h4.55v-1.65h3.57v1.65h4.58V14.3z M105.27,22.66l1.11-7.25h2.79l-1.14,7.25H105.27z M110.81,9.57
					h-5.27l4.28-3.75h5.27L110.81,9.57z M114.04,15.41h2.79l1.14,7.25h-2.79L114.04,15.41z M131.57,14.3h-4.59v8.36h-3.56V14.3
					h-4.56v-2.37h4.56v-1.65h3.56v1.65h4.59V14.3z M118.86,22.66l1.11-7.25h2.79l-1.14,7.25H118.86z M125.85,9.57l-4.28-3.75h5.27
					l4.29,3.75H125.85z M127.64,15.41h2.79l1.14,7.25h-2.79L127.64,15.41z"/>
				<path class="st0" d="M135.43,12.17l3.54-3.06h-3.59V6.15h5.15V5.08h-1.02h-2.22h-1.92l1.41-4.02h4.13l-0.36,1.05h7.85v2.97
					h-3.71v1.08h3.89v2.96h-2.21l2.6,3.06h-4.16l-1.92-2.28l-2.63,2.28h-4.83V12.17z M135.73,22.63v-2.61v-1.2v-2.04v-1.2v-2.34
					v-0.3h21.24h4.34v2.66v1.19v1.91v0.12c-0.02,0.54-0.12,1.04-0.28,1.49c-0.17,0.46-0.41,0.86-0.7,1.2
					c-0.3,0.34-0.65,0.61-1.05,0.8c-0.4,0.2-0.82,0.3-1.26,0.3h-18.03h-4.26V22.63z M139.98,16.79h16.98v-1.2h-16.98V16.79z
					 M139.98,19.99h16.03c0.28,0,0.51-0.11,0.69-0.32c0.18-0.22,0.27-0.48,0.27-0.79v-0.06h-16.98v1.17H139.98z M149.78,1.06h11.89
					v0.27v2.69v4.85c0,0.46-0.09,0.89-0.26,1.29s-0.4,0.75-0.7,1.05s-0.65,0.53-1.05,0.7c-0.4,0.17-0.83,0.25-1.29,0.25h-8.6V11V9.2
					V4.03v-2.7L149.78,1.06L149.78,1.06z M157.51,4.03h-3.57v5.18h2.64c0.26,0,0.48-0.09,0.66-0.27c0.18-0.18,0.27-0.4,0.27-0.66
					V4.03z"/>
				<path class="st0" d="M171.64,11.39h-6.14V8.31h26.21v3.08h-15.63l-3.57,7.55h13.06l-1.98-4.01h4.37l3.74,7.67h-4.34l-0.3-0.57
					h-15.99h-4.46L171.64,11.39z M167.27,1.09h22.68v3.08h-22.68L167.27,1.09L167.27,1.09z"/>
			</g>
		</g>
		<path class="st0" d="M37.96,6.17h25.67c2.67,0,4.83-2.16,4.83-4.83l0,0H38.23c-3.2,0-6.14,2.16-6.76,5.3
			c-0.82,4.23,2.41,7.94,6.49,7.94h8.63c0.99,0,1.79,0.8,1.79,1.79s-0.8,1.79-1.79,1.79H11.07c-2.9,0-5.57-1.96-6.12-4.8
			c-0.75-3.83,2.18-7.2,5.88-7.2h9.35c2.67,0,4.83-2.16,4.83-4.83l0,0H11.32c-5.65,0-10.71,4.12-11.26,9.74
			C-0.58,17.54,4.5,23,10.83,23h35.5c3.2,0,6.14-2.16,6.76-5.3c0.82-4.23-2.41-7.94-6.49-7.94h-8.63c-0.99,0-1.79-0.8-1.79-1.79
			C36.17,6.98,36.97,6.17,37.96,6.17z"/>
	</g>
	<g>
		<path class="st0" d="M222.42,17.98c-0.02,0.07-0.38,1.35-1.3,2.69c-0.78,1.14-1.6,2.28-2.89,2.31c-1.25,0.02-1.66-0.76-3.1-0.76
			c-1.41,0-1.86,0.74-3.06,0.79c-1.24,0.05-2.18-1.24-2.97-2.38c-1.63-2.35-2.86-6.6-1.19-9.42c0.82-1.45,2.29-2.35,3.88-2.37
			c1.23-0.02,2.38,0.81,3.08,0.81c0.75,0,2.15-1,3.6-0.86c0.62,0.03,2.35,0.25,3.46,1.89c-0.1,0.05-2.06,1.18-2.04,3.51
			C219.93,17.02,222.4,17.96,222.42,17.98z M217.52,7.23c0.65-0.8,1.1-1.91,0.97-3.01c-0.93,0.04-2.09,0.62-2.77,1.42
			c-0.6,0.71-1.14,1.84-1.01,2.91C215.78,8.65,216.87,8.03,217.52,7.23z"/>
		<path class="st0" d="M234.57,15.51h-1.01l-0.55-1.73h-1.91l-0.52,1.73h-0.98l1.9-5.89h1.17L234.57,15.51z M232.85,13.06l-0.5-1.54
			c-0.05-0.16-0.15-0.53-0.3-1.11h-0.02c-0.06,0.25-0.15,0.62-0.28,1.11l-0.49,1.54H232.85z"/>
		<path class="st0" d="M238.75,15.51h-0.83l-0.05-0.65h-0.02c-0.3,0.5-0.75,0.74-1.35,0.74c-0.42,0-0.75-0.13-1-0.39
			c-0.3-0.32-0.44-0.8-0.44-1.45v-2.5H236v2.34c0,0.82,0.28,1.22,0.84,1.22c0.42,0,0.71-0.2,0.88-0.61c0.04-0.1,0.06-0.22,0.06-0.36
			v-2.59h0.94v3.02C238.71,14.69,238.72,15.1,238.75,15.51z"/>
		<path class="st0" d="M241.87,11.98h-1.04v2.06c0,0.52,0.19,0.79,0.55,0.79c0.17,0,0.31-0.01,0.42-0.04l0.03,0.72
			c-0.19,0.07-0.43,0.1-0.73,0.1c-0.37,0-0.67-0.11-0.87-0.34c-0.21-0.23-0.31-0.61-0.31-1.14v-2.14h-0.62v-0.71h0.62V10.5
			l0.92-0.28v1.06h1.04v0.7H241.87z"/>
		<path class="st0" d="M246.33,15.51h-0.94v-2.42c0-0.76-0.28-1.14-0.86-1.14c-0.44,0-0.74,0.22-0.9,0.66
			c-0.03,0.09-0.04,0.21-0.04,0.34v2.56h-0.94V9.32h0.94v2.55h0.02c0.3-0.46,0.72-0.69,1.28-0.69c0.39,0,0.71,0.13,0.97,0.38
			c0.32,0.32,0.48,0.8,0.48,1.43v2.52H246.33z"/>
		<path class="st0" d="M251.34,13.36c0,0.65-0.19,1.19-0.56,1.61c-0.39,0.43-0.91,0.65-1.56,0.65c-0.62,0-1.12-0.21-1.49-0.62
			c-0.37-0.41-0.56-0.94-0.56-1.56c0-0.66,0.19-1.2,0.57-1.62s0.9-0.63,1.54-0.63c0.62,0,1.12,0.21,1.5,0.62
			C251.16,12.2,251.34,12.72,251.34,13.36z M250.36,13.38c0-0.39-0.08-0.72-0.25-1c-0.2-0.34-0.48-0.51-0.85-0.51
			c-0.38,0-0.67,0.17-0.87,0.51c-0.17,0.28-0.25,0.62-0.25,1.02c0,0.39,0.09,0.72,0.25,1c0.2,0.34,0.49,0.51,0.86,0.51
			c0.36,0,0.64-0.17,0.85-0.51C250.27,14.1,250.36,13.77,250.36,13.38z"/>
		<path class="st0" d="M254.44,12.1c-0.09-0.02-0.19-0.03-0.3-0.03c-0.33,0-0.59,0.13-0.77,0.38c-0.16,0.22-0.24,0.5-0.24,0.84v2.23
			h-0.94V12.6c0-0.49-0.01-0.94-0.03-1.34h0.82l0.04,0.81h0.02c0.1-0.28,0.26-0.5,0.47-0.67c0.21-0.15,0.43-0.23,0.68-0.23
			c0.09,0,0.17,0.01,0.24,0.02v0.91H254.44z"/>
		<path class="st0" d="M256.18,10c0,0.17-0.05,0.31-0.17,0.41c-0.11,0.11-0.25,0.16-0.43,0.16c-0.16,0-0.29-0.05-0.4-0.16
			s-0.16-0.24-0.16-0.41c0-0.16,0.05-0.3,0.16-0.4c0.11-0.1,0.25-0.16,0.41-0.16s0.3,0.05,0.41,0.16
			C256.12,9.7,256.18,9.84,256.18,10z M256.07,15.51h-0.95v-4.25h0.95V15.51z"/>
		<path class="st0" d="M264.56,13.19c0,0.17-0.01,0.31-0.03,0.43h-2.83c0.01,0.42,0.15,0.74,0.41,0.96c0.24,0.2,0.55,0.3,0.93,0.3
			c0.42,0,0.8-0.07,1.15-0.2l0.15,0.65c-0.4,0.17-0.88,0.26-1.42,0.26c-0.66,0-1.18-0.2-1.55-0.58c-0.38-0.39-0.56-0.91-0.56-1.56
			c0-0.64,0.18-1.17,0.52-1.6c0.37-0.45,0.86-0.68,1.49-0.68c0.61,0,1.08,0.23,1.39,0.68C264.43,12.22,264.56,12.66,264.56,13.19z
			 M263.66,12.95c0.01-0.28-0.05-0.52-0.18-0.73c-0.16-0.26-0.41-0.39-0.75-0.39c-0.31,0-0.56,0.13-0.75,0.38
			c-0.16,0.2-0.25,0.45-0.28,0.73h1.96V12.95z"/>
		<path class="st0" d="M269.25,15.51h-0.84l-0.04-0.68h-0.03c-0.27,0.52-0.72,0.78-1.36,0.78c-0.51,0-0.94-0.2-1.28-0.6
			c-0.33-0.4-0.5-0.92-0.5-1.57c0-0.69,0.18-1.24,0.55-1.67c0.36-0.39,0.8-0.59,1.32-0.59c0.58,0,0.98,0.19,1.2,0.58V9.32h0.95v5.05
			C269.21,14.78,269.22,15.17,269.25,15.51z M268.27,13.72v-0.71c0-0.12-0.01-0.22-0.03-0.3c-0.05-0.23-0.17-0.42-0.34-0.57
			c-0.17-0.16-0.39-0.23-0.63-0.23c-0.35,0-0.63,0.14-0.83,0.42c-0.2,0.28-0.3,0.64-0.3,1.08c0,0.42,0.1,0.76,0.29,1.02
			c0.2,0.28,0.48,0.42,0.82,0.42c0.31,0,0.56-0.12,0.75-0.35C268.18,14.29,268.27,14.03,268.27,13.72z"/>
		<path class="st0" d="M276.92,15.51h-0.97c-0.09-0.17-0.22-0.64-0.38-1.4c-0.08-0.4-0.21-0.67-0.37-0.83
			c-0.17-0.16-0.41-0.24-0.72-0.24h-0.58v2.47h-0.95V9.7c0.43-0.08,0.94-0.12,1.53-0.12c0.8,0,1.38,0.15,1.75,0.47
			c0.33,0.28,0.49,0.67,0.49,1.16c0,0.36-0.11,0.68-0.33,0.95c-0.19,0.24-0.44,0.42-0.75,0.53v0.02c0.4,0.15,0.68,0.54,0.83,1.17
			c0.11,0.49,0.2,0.83,0.25,1.01C276.8,15.21,276.86,15.42,276.92,15.51z M275.76,11.3c0-0.67-0.4-1.01-1.2-1.01
			c-0.3,0-0.53,0.02-0.68,0.06v1.98h0.66c0.37,0,0.67-0.09,0.89-0.28C275.65,11.86,275.76,11.61,275.76,11.3z"/>
		<path class="st0" d="M281.21,13.19c0,0.17-0.01,0.31-0.03,0.43h-2.83c0.01,0.42,0.15,0.74,0.41,0.96c0.24,0.2,0.55,0.3,0.92,0.3
			c0.42,0,0.8-0.07,1.14-0.2l0.15,0.65c-0.4,0.17-0.87,0.26-1.42,0.26c-0.66,0-1.18-0.2-1.55-0.58c-0.38-0.39-0.56-0.91-0.56-1.56
			c0-0.64,0.17-1.17,0.52-1.6c0.37-0.45,0.86-0.68,1.49-0.68c0.61,0,1.07,0.23,1.39,0.68C281.08,12.22,281.21,12.66,281.21,13.19z
			 M280.31,12.95c0.01-0.28-0.06-0.52-0.18-0.73c-0.16-0.26-0.41-0.39-0.75-0.39c-0.31,0-0.56,0.13-0.75,0.38
			c-0.15,0.2-0.25,0.45-0.28,0.73h1.96V12.95z"/>
		<path class="st0" d="M284.63,14.29c0,0.4-0.15,0.71-0.44,0.95s-0.69,0.36-1.2,0.36c-0.49,0-0.89-0.1-1.23-0.29l0.2-0.7
			c0.33,0.2,0.67,0.3,1.04,0.3c0.48,0,0.72-0.18,0.72-0.53c0-0.16-0.05-0.29-0.15-0.39c-0.11-0.1-0.29-0.2-0.56-0.3
			c-0.76-0.28-1.13-0.69-1.13-1.22c0-0.37,0.14-0.67,0.42-0.92c0.28-0.24,0.65-0.37,1.11-0.37c0.41,0,0.77,0.08,1.07,0.25l-0.2,0.67
			c-0.28-0.16-0.56-0.24-0.87-0.24c-0.2,0-0.35,0.05-0.46,0.14s-0.17,0.21-0.17,0.36s0.06,0.27,0.18,0.36
			c0.1,0.09,0.29,0.18,0.58,0.29C284.26,13.29,284.63,13.71,284.63,14.29z"/>
		<path class="st0" d="M260.02,14.29c0,0.4-0.15,0.71-0.44,0.95s-0.69,0.36-1.21,0.36c-0.48,0-0.89-0.1-1.23-0.29l0.2-0.7
			c0.33,0.2,0.67,0.3,1.04,0.3c0.48,0,0.72-0.18,0.72-0.53c0-0.16-0.05-0.29-0.16-0.39c-0.11-0.1-0.29-0.2-0.56-0.3
			c-0.76-0.28-1.14-0.69-1.14-1.22c0-0.37,0.14-0.67,0.42-0.92c0.28-0.24,0.65-0.37,1.11-0.37c0.42,0,0.78,0.08,1.08,0.25l-0.2,0.67
			c-0.28-0.16-0.56-0.24-0.87-0.24c-0.2,0-0.35,0.05-0.46,0.14s-0.17,0.21-0.17,0.36s0.06,0.27,0.18,0.36
			c0.1,0.09,0.29,0.18,0.58,0.29C259.65,13.29,260.02,13.71,260.02,14.29z"/>
		<path class="st0" d="M289.04,13.19c0,0.17-0.01,0.31-0.03,0.43h-2.83c0.01,0.42,0.15,0.74,0.41,0.96c0.24,0.2,0.55,0.3,0.92,0.3
			c0.42,0,0.8-0.07,1.14-0.2l0.15,0.65c-0.4,0.17-0.88,0.26-1.43,0.26c-0.66,0-1.17-0.2-1.55-0.58c-0.38-0.39-0.56-0.91-0.56-1.56
			c0-0.64,0.17-1.17,0.52-1.6c0.37-0.45,0.86-0.68,1.48-0.68c0.61,0,1.08,0.23,1.39,0.68C288.92,12.22,289.04,12.66,289.04,13.19z
			 M288.14,12.95c0-0.28-0.06-0.52-0.18-0.73c-0.16-0.26-0.41-0.39-0.75-0.39c-0.31,0-0.56,0.13-0.75,0.38
			c-0.16,0.2-0.25,0.45-0.28,0.73h1.96V12.95z"/>
		<path class="st0" d="M290.83,15.51h-0.95V9.32h0.95V15.51z"/>
		<path class="st0" d="M292.89,15.51h-0.94V9.32h0.94V15.51z"/>
		<path class="st0" d="M297.45,13.19c0,0.17-0.01,0.31-0.03,0.43h-2.83c0.01,0.42,0.15,0.74,0.41,0.96c0.24,0.2,0.55,0.3,0.92,0.3
			c0.42,0,0.8-0.07,1.15-0.2l0.15,0.65c-0.4,0.17-0.87,0.26-1.42,0.26c-0.66,0-1.18-0.2-1.55-0.58c-0.38-0.39-0.57-0.91-0.57-1.56
			c0-0.64,0.17-1.17,0.52-1.6c0.37-0.45,0.86-0.68,1.49-0.68c0.61,0,1.07,0.23,1.39,0.68C297.32,12.22,297.45,12.66,297.45,13.19z
			 M296.55,12.95c0.01-0.28-0.06-0.52-0.18-0.73c-0.16-0.26-0.42-0.39-0.75-0.39c-0.31,0-0.56,0.13-0.75,0.38
			c-0.16,0.2-0.25,0.45-0.28,0.73h1.96V12.95z"/>
		<path class="st0" d="M300.51,12.1c-0.1-0.02-0.19-0.03-0.3-0.03c-0.33,0-0.59,0.13-0.77,0.38c-0.16,0.22-0.24,0.5-0.24,0.84v2.23
			h-0.94V12.6c0-0.49-0.01-0.94-0.03-1.34h0.82l0.03,0.81h0.03c0.1-0.28,0.26-0.5,0.47-0.67c0.21-0.15,0.44-0.23,0.68-0.23
			c0.09,0,0.17,0.01,0.24,0.02L300.51,12.1L300.51,12.1z"/>
		<path class="st0" d="M231.07,20.52c-0.13,0.03-0.28,0.08-0.44,0.13v1.26c0,0.17-0.04,0.28-0.11,0.35s-0.25,0.1-0.52,0.1
			c-0.09,0-0.17,0-0.25-0.01l-0.1-0.45c0.19,0.02,0.31,0.02,0.35,0.02c0.04,0,0.08-0.01,0.12-0.03s0.06-0.07,0.06-0.15v-0.96
			l-0.44,0.14l-0.11-0.44c0.12-0.03,0.31-0.08,0.55-0.14V19.3h-0.5v-0.41h0.5v-0.87h0.44v0.87h0.39v0.41h-0.39v0.9
			c0.18-0.06,0.3-0.1,0.38-0.13L231.07,20.52z M234.14,21.97l-0.24,0.44c-0.58-0.13-1.05-0.31-1.39-0.54
			c-0.37,0.24-0.83,0.42-1.4,0.55l-0.26-0.41c0.47-0.08,0.9-0.23,1.28-0.43c-0.26-0.25-0.48-0.58-0.66-0.98h-0.18v-0.4h2.46
			c-0.18,0.57-0.46,1.04-0.86,1.39C233.22,21.76,233.64,21.88,234.14,21.97z M233.99,20.14h-0.46v-0.32h-2.02v0.32h-0.44v-0.73h0.46
			c-0.04-0.11-0.12-0.28-0.23-0.5l0.41-0.11c0.11,0.22,0.2,0.42,0.29,0.61h0.41c-0.04-0.17-0.12-0.37-0.22-0.6l0.41-0.09
			c0.12,0.24,0.21,0.48,0.27,0.7h0.23c0.12-0.22,0.23-0.47,0.33-0.75l0.44,0.12c-0.14,0.28-0.24,0.5-0.31,0.63H234v0.72H233.99z
			 M233.95,18.5c-0.96,0.11-1.88,0.17-2.76,0.18l-0.08-0.44c0.89,0.02,1.79-0.03,2.74-0.17L233.95,18.5z M233.11,20.61h-1.2
			c0.16,0.29,0.36,0.54,0.6,0.73C232.79,21.14,232.99,20.89,233.11,20.61z"/>
		<path class="st0" d="M236.55,20.53l-0.38,0.25c-0.13-0.2-0.28-0.41-0.44-0.63v2.3h-0.46v-1.93c-0.11,0.28-0.24,0.55-0.4,0.8
			l-0.38-0.26c0.34-0.52,0.6-1.07,0.76-1.65h-0.69v-0.43h0.7v-0.93h0.46v0.93h0.6v0.43h-0.6v0.44l0.21-0.15
			C236.23,20.08,236.43,20.35,236.55,20.53z M239.04,21.97l-0.32,0.41c-0.5-0.32-0.9-0.67-1.2-1.05c-0.31,0.39-0.71,0.75-1.19,1.07
			l-0.36-0.37c0.5-0.32,0.92-0.69,1.26-1.12c-0.34-0.56-0.58-1.3-0.71-2.21h-0.27v-0.43h2.45c-0.12,1.07-0.42,1.95-0.89,2.65
			C238.14,21.37,238.55,21.71,239.04,21.97z M238.19,18.72h-1.22c0.09,0.69,0.28,1.29,0.56,1.8
			C237.87,19.98,238.08,19.38,238.19,18.72z"/>
		<path class="st0" d="M241.37,18.98c-0.26,0.53-0.56,1.04-0.89,1.54l0.74-0.11l-0.05,0.42l-0.9,0.15
			c-0.16,0.03-0.31,0.07-0.45,0.12l-0.13-0.46c0.07-0.02,0.13-0.03,0.17-0.06c0.04-0.02,0.08-0.05,0.11-0.09s0.09-0.12,0.18-0.26
			s0.18-0.28,0.28-0.44l-0.33,0.02c-0.11,0.01-0.24,0.04-0.41,0.09l-0.12-0.47c0.06-0.01,0.11-0.03,0.14-0.06
			c0.04-0.03,0.12-0.18,0.26-0.44c0.14-0.25,0.27-0.56,0.4-0.92l0.43,0.12c-0.18,0.43-0.39,0.85-0.61,1.26l0.46-0.02
			c0.09-0.16,0.18-0.36,0.28-0.58L241.37,18.98z M241.31,21.69l-1.62,0.4l-0.09-0.46c0.4-0.07,0.96-0.19,1.71-0.37L241.31,21.69
			L241.31,21.69z M244.01,22.22h-2.88V21.8h1.22v-0.98h-0.89V20.4h2.28v0.42h-0.91v0.98h1.19L244.01,22.22L244.01,22.22z
			 M244.08,19.95l-0.32,0.33c-0.38-0.26-0.74-0.5-1.08-0.71c-0.33,0.28-0.73,0.52-1.19,0.73l-0.3-0.41c0.81-0.3,1.4-0.71,1.76-1.23
			h-1.5v-0.42h2.27c-0.22,0.41-0.45,0.75-0.72,1.02L244.08,19.95z"/>
		<path class="st0" d="M246.27,21.62l-0.6,0.48c-0.12,0.1-0.25,0.21-0.38,0.33l-0.32-0.35c0.11-0.08,0.17-0.19,0.17-0.32v-0.98
			h-0.56v-0.42h0.56v-0.51h-0.22v-0.2l-0.13,0.23l-0.35-0.24c0.33-0.5,0.56-1.05,0.7-1.66l0.44,0.07l-0.18,0.57h0.84v0.41h-1
			c-0.05,0.13-0.11,0.26-0.19,0.39h1.1v0.42h-0.54v0.51h0.61v0.42h-0.61v0.78l0.51-0.43L246.27,21.62z M247.12,19.11l-0.4,0.14
			c-0.12-0.31-0.26-0.61-0.42-0.9l0.36-0.16C246.84,18.51,246.99,18.82,247.12,19.11z M248.73,21.87c0,0.2-0.04,0.34-0.12,0.41
			c-0.08,0.08-0.24,0.12-0.46,0.12c-0.23,0-0.37,0-0.44-0.01l-0.11-0.46c0.16,0.02,0.3,0.02,0.42,0.02c0.11,0,0.18-0.02,0.21-0.04
			c0.03-0.03,0.04-0.09,0.04-0.17v-0.4h-1.44v1.07h-0.45v-3.08h0.93v-1.32h0.48v1.32h0.93v2.54H248.73z M248.28,20.14v-0.37h-1.44
			v0.37H248.28z M248.28,20.94v-0.39h-1.44v0.39H248.28z M248.83,18.34c-0.09,0.2-0.24,0.52-0.46,0.93l-0.39-0.17
			c0.2-0.32,0.35-0.62,0.46-0.92L248.83,18.34z"/>
		<path class="st0" d="M252.5,20.68v1.18h-1.88v-1.17c-0.15,0.11-0.25,0.19-0.32,0.24l-0.24-0.23v1.74h-0.46v-3.06h1.03
			c-0.08-0.17-0.16-0.33-0.24-0.45l0.04-0.02h-1.03V18.5h1.93c-0.03-0.09-0.09-0.22-0.18-0.39l0.47-0.12
			c0.11,0.21,0.19,0.38,0.24,0.51h1.82v0.41h-0.98c-0.09,0.22-0.17,0.38-0.22,0.47h1v2.37c0,0.27-0.04,0.45-0.13,0.53
			c-0.09,0.09-0.28,0.13-0.57,0.13c-0.12,0-0.23-0.01-0.35-0.02l-0.12-0.42c0.23,0.02,0.39,0.02,0.48,0.02
			c0.08,0,0.14-0.02,0.17-0.07c0.04-0.04,0.05-0.1,0.05-0.18v-1.12l-0.27,0.3C252.7,20.86,252.61,20.78,252.5,20.68z M250.97,19.8
			h-0.91v0.79C250.43,20.34,250.74,20.08,250.97,19.8z M250.78,20.56h1.58c-0.21-0.17-0.42-0.33-0.63-0.48l0.25-0.28H251l0.32,0.23
			C251.13,20.24,250.95,20.42,250.78,20.56z M252.24,18.92h-1.37l0.25,0.47h0.89C252.1,19.22,252.18,19.06,252.24,18.92z
			 M252.05,21.46v-0.5h-0.98v0.5H252.05z M253.03,20.57V19.8h-1.01C252.38,20.05,252.72,20.31,253.03,20.57z"/>
	</g>
</g>
</svg>
